<svg width="560" height="642" viewBox="0 0 560 642" fill="none" xmlns="http://www.w3.org/2000/svg">
<rect width="560" height="642" fill="#006060"/>
<path d="M424 103C352.25 103 352.25 73 280.5 73L409 570H439C472.137 570 499 543.137 499 510V281.474C517.555 262.536 529 236.607 529 208C529 150.01 481.99 103 424 103Z" fill="#C87044"/>
<path d="M469 510L424 133C382.105 133 360.096 114.595 340.678 98.356C323.736 84.189 310.355 73 280.5 73C208.75 73 208.75 103 137 103C79.01 103 32 150.01 32 208C32 236.607 43.445 262.537 62 281.474V510C62 543.137 88.863 570 122 570H409C442.137 570 469 543.137 469 510Z" fill="#DB905A"/>
<path d="M424 133L409 540H439C455.542 540 469 526.542 469 510V281.474C469 273.623 472.077 266.086 477.571 260.478C491.39 246.375 499 227.738 499 208C499 166.645 465.355 133 424 133Z" fill="#FFD185"/>
<path d="M439 510V281.474C439 265.678 445.088 250.766 456.143 239.483C464.434 231.021 469 219.84 469 208C469 166.645 448.813 133 424 133C382.105 133 360.096 123.797 340.678 115.678C323.736 108.595 310.355 103 280.5 103C250.644 103 237.264 108.595 220.323 115.678C200.904 123.797 178.894 133 137 133C95.645 133 62 166.645 62 208C62 227.738 69.61 246.375 83.429 260.479C88.923 266.086 92 273.624 92 281.474V510C92 526.542 105.458 540 122 540H409C425.542 540 439 526.542 439 510Z" fill="#FFE8C2"/>
<path d="M424 215.5C428.142 215.5 431.5 212.142 431.5 208C431.5 203.858 428.142 200.5 424 200.5C419.858 200.5 416.5 203.858 416.5 208C416.5 212.142 419.858 215.5 424 215.5Z" fill="#FFD185"/>
<path d="M394 245.5C398.142 245.5 401.5 242.142 401.5 238C401.5 233.858 398.142 230.5 394 230.5C389.858 230.5 386.5 233.858 386.5 238C386.5 242.142 389.858 245.5 394 245.5Z" fill="#FFD185"/>
<path d="M137 457.5C141.142 457.5 144.5 454.142 144.5 450C144.5 445.858 141.142 442.5 137 442.5C132.858 442.5 129.5 445.858 129.5 450C129.5 454.142 132.858 457.5 137 457.5Z" fill="#FFD185"/>
<path d="M167 487.5C171.142 487.5 174.5 484.142 174.5 480C174.5 475.858 171.142 472.5 167 472.5C162.858 472.5 159.5 475.858 159.5 480C159.5 484.142 162.858 487.5 167 487.5Z" fill="#FFD185"/>
<path d="M137 215.5C141.142 215.5 144.5 212.142 144.5 208C144.5 203.858 141.142 200.5 137 200.5C132.858 200.5 129.5 203.858 129.5 208C129.5 212.142 132.858 215.5 137 215.5Z" fill="#FFD185"/>
<path d="M372.717 394.303C372.717 403.953 364.894 411.775 355.244 411.775C345.594 411.775 337.771 403.953 337.771 394.303C337.771 384.653 345.594 376.83 355.244 376.83C364.894 376.83 372.717 384.653 372.717 394.303Z" fill="#A5542B"/>
<path d="M226.141 394.303C226.141 403.953 218.318 411.775 208.668 411.775C199.018 411.775 191.195 403.953 191.195 394.303C191.195 384.653 199.018 376.83 208.668 376.83C218.318 376.83 226.141 384.653 226.141 394.303Z" fill="#A5542B"/>
<path d="M258.174 434.587C278.076 442.735 289.234 441.801 309.136 434.587C312.048 433.531 314.492 442.353 309.136 444.294C289.234 451.508 278.076 452.442 258.174 444.294C252.835 442.108 253.32 432.6 258.174 434.587Z" fill="#A5542B"/>
</svg>
