<svg width="24" height="25" viewBox="0 0 24 25" fill="none" xmlns="http://www.w3.org/2000/svg">
<g id="perm_identity" clip-path="url(#clip0_1_28)">
<path id="Vector" d="M12 6.1399C13.16 6.1399 14.1 7.0799 14.1 8.2399C14.1 9.3999 13.16 10.3399 12 10.3399C10.84 10.3399 9.9 9.3999 9.9 8.2399C9.9 7.0799 10.84 6.1399 12 6.1399ZM12 15.1399C14.97 15.1399 18.1 16.5999 18.1 17.2399V18.3399H5.9V17.2399C5.9 16.5999 9.03 15.1399 12 15.1399ZM12 4.2399C9.79 4.2399 8 6.0299 8 8.2399C8 10.4499 9.79 12.2399 12 12.2399C14.21 12.2399 16 10.4499 16 8.2399C16 6.0299 14.21 4.2399 12 4.2399ZM12 13.2399C9.33 13.2399 4 14.5799 4 17.2399V20.2399H20V17.2399C20 14.5799 14.67 13.2399 12 13.2399Z" fill="#006060"/>
</g>
<defs>
<clipPath id="clip0_1_28">
<rect width="24" height="24" fill="white" transform="translate(0 0.239899)"/>
</clipPath>
</defs>
</svg>
