<svg width="24" height="25" viewBox="0 0 24 25" fill="none" xmlns="http://www.w3.org/2000/svg">
<g id="vpn_key" clip-path="url(#clip0_1_39)">
<path id="Vector" d="M12.65 10.4673C11.83 8.13733 9.61 6.46733 7 6.46733C3.69 6.46733 1 9.15733 1 12.4673C1 15.7773 3.69 18.4673 7 18.4673C9.61 18.4673 11.83 16.7973 12.65 14.4673H17V18.4673H21V14.4673H23V10.4673H12.65ZM7 14.4673C5.9 14.4673 5 13.5673 5 12.4673C5 11.3673 5.9 10.4673 7 10.4673C8.1 10.4673 9 11.3673 9 12.4673C9 13.5673 8.1 14.4673 7 14.4673Z" fill="#006060"/>
</g>
<defs>
<clipPath id="clip0_1_39">
<rect width="24" height="24" fill="white" transform="translate(0 0.467331)"/>
</clipPath>
</defs>
</svg>
